<?xml version="1.0" encoding="UTF-8"?>
<svg width="512" height="512" viewBox="0 0 512 512" fill="none" xmlns="http://www.w3.org/2000/svg">
  <rect width="512" height="512" rx="100" fill="#1a237e"/>
  <path d="M256 96C167.635 96 96 167.635 96 256C96 344.365 167.635 416 256 416C344.365 416 416 344.365 416 256C416 167.635 344.365 96 256 96ZM256 384C185.309 384 128 326.691 128 256C128 185.309 185.309 128 256 128C326.691 128 384 185.309 384 256C384 326.691 326.691 384 256 384Z" fill="white"/>
  <path d="M288 208H272V192C272 183.164 264.836 176 256 176C247.164 176 240 183.164 240 192V208H224C215.164 208 208 215.164 208 224C208 232.836 215.164 240 224 240H240V320C240 328.836 247.164 336 256 336C264.836 336 272 328.836 272 320V240H288C296.836 240 304 232.836 304 224C304 215.164 296.836 208 288 208Z" fill="white"/>
</svg> 