<?xml version="1.0" encoding="UTF-8"?>
<svg width="800" height="600" viewBox="0 0 800 600" fill="none" xmlns="http://www.w3.org/2000/svg">
  <!-- Background Shapes -->
  <circle cx="400" cy="300" r="280" fill="#e8eaf6" opacity="0.3"/>
  <circle cx="400" cy="300" r="200" fill="#c5cae9" opacity="0.2"/>
  
  <!-- Main Document -->
  <rect x="250" y="150" width="300" height="400" rx="20" fill="white" stroke="#1a237e" stroke-width="2"/>
  <rect x="280" y="180" width="240" height="30" rx="4" fill="#e8eaf6"/>
  <rect x="280" y="230" width="180" height="20" rx="4" fill="#c5cae9"/>
  
  <!-- Tax Calculator Elements -->
  <rect x="280" y="280" width="240" height="60" rx="8" fill="#1a237e" opacity="0.1"/>
  <path d="M300 310h200" stroke="#1a237e" stroke-width="2" stroke-dasharray="4 4"/>
  
  <!-- Chart Elements -->
  <rect x="280" y="360" width="240" height="120" rx="8" fill="#e8eaf6"/>
  <path d="M300 440l40-30 40 20 40-40 40 30 40-20" stroke="#1a237e" stroke-width="2" fill="none"/>
  
  <!-- Floating Elements -->
  <g transform="translate(600,200) rotate(15)">
    <rect width="100" height="140" rx="10" fill="white" stroke="#1a237e" stroke-width="2"/>
    <rect x="15" y="20" width="70" height="10" rx="2" fill="#c5cae9"/>
    <rect x="15" y="40" width="50" height="10" rx="2" fill="#c5cae9"/>
    <rect x="15" y="60" width="70" height="40" rx="2" fill="#e8eaf6"/>
  </g>
  
  <g transform="translate(150,250) rotate(-15)">
    <rect width="100" height="140" rx="10" fill="white" stroke="#1a237e" stroke-width="2"/>
    <rect x="15" y="20" width="70" height="10" rx="2" fill="#c5cae9"/>
    <rect x="15" y="40" width="50" height="10" rx="2" fill="#c5cae9"/>
    <circle cx="50" cy="90" r="20" fill="#1a237e" opacity="0.1"/>
  </g>
  
  <!-- Decorative Elements -->
  <circle cx="150" cy="150" r="40" fill="#1a237e" opacity="0.1"/>
  <circle cx="650" cy="450" r="60" fill="#1a237e" opacity="0.1"/>
  
  <!-- Abstract Lines -->
  <path d="M100 500c50-30 100-50 200-50s150 20 200 50" stroke="#1a237e" stroke-width="2" opacity="0.2"/>
  <path d="M700 100c-50 30-100 50-200 50s-150-20-200-50" stroke="#1a237e" stroke-width="2" opacity="0.2"/>
</svg> 